<svg xmlns="http://www.w3.org/2000/svg" viewBox="0 0 64 64" fill="none">
  <!-- Gear body -->
  <path d="M32 6 L36 6 L37 12 Q39.5 12.8 41.5 14 L47 10.5 L50 13.5 L46.5 19 Q48 21 48.8 23.5 L55 24.5 L55 28.5 L48.8 29.5 Q48 32 46.5 34 L50 39.5 L47 42.5 L41.5 39 Q39.5 40.2 37 41 L36 47 L32 47 L31 41 Q28.5 40.2 26.5 39 L21 42.5 L18 39.5 L21.5 34 Q20 32 19.2 29.5 L13 28.5 L13 24.5 L19.2 23.5 Q20 21 21.5 19 L18 13.5 L21 10.5 L26.5 14 Q28.5 12.8 31 12 Z" fill="#dc2626" stroke="#991b1b" stroke-width="1.2"/>
  <!-- Inner hub -->
  <circle cx="34" cy="26.5" r="8" fill="#0f0808" stroke="#dc2626" stroke-width="1.5"/>
  <!-- Center bore -->
  <circle cx="34" cy="26.5" r="3.5" fill="none" stroke="#ef4444" stroke-width="1.2"/>
  <!-- Bottom gear teeth -->
  <path d="M26 47 L28 47 L28.5 52 Q30 52.8 31.5 54 L35 51.5 L37 53.5 L34.5 57 Q36 58.5 36.5 60 L41 60.5 L41 62.5 L36.5 63 Q36 64.5 34.5 66 L37 69.5 L35 71.5 L31.5 69 Q30 69.8 28.5 70.2 L28 75 L26 75 L25.5 70.2 Q24 69.8 22.5 69 L19 71.5 L17 69.5 L19.5 66 Q18 64.5 17.5 63 L13 62.5 L13 60.5 L17.5 60 Q18 58.5 19.5 57 L17 53.5 L19 51.5 L22.5 54 Q24 52.8 25.5 52 Z" fill="#dc2626" stroke="#991b1b" stroke-width="0.8" opacity="0"/>
  <!-- Text "G" -->
  <text x="34" y="31" text-anchor="middle" font-family="Arial,sans-serif" font-weight="900" font-size="13" fill="white">G</text>
</svg>
